<?xml version="1.0" encoding="UTF-8" standalone="no"?>
<!-- Created with Inkscape (http://www.inkscape.org/) -->

<svg
   width="96.179695mm"
   height="35.178402mm"
   viewBox="0 0 96.179695 35.178402"
   version="1.1"
   id="svg67127"
   xml:space="preserve"
   xmlns="http://www.w3.org/2000/svg"
   xmlns:svg="http://www.w3.org/2000/svg"
   xmlns:rdf="http://www.w3.org/1999/02/22-rdf-syntax-ns#"
   xmlns:cc="http://creativecommons.org/ns#"
   xmlns:dc="http://purl.org/dc/elements/1.1/"><defs
     id="defs67124"><clipPath
       clipPathUnits="userSpaceOnUse"
       id="clipEmfPath1"><path
         d="M 1.2799782,-6.0798966 H 372.79366 V 147.1975 H 1.2799782 Z"
         id="path67857" /></clipPath></defs><g
     id="layer1"
     transform="translate(23.707316,-83.053595)"><g
       id="g68074"
       transform="matrix(0.26458333,0,0,0.26458333,-24.278806,82.101111)"><path
         style="fill:none;stroke:#bfbfbf;stroke-width:0.639989px;stroke-linecap:butt;stroke-linejoin:miter;stroke-miterlimit:8;stroke-dasharray:none;stroke-opacity:1"
         clip-path="url(#clipEmfPath1)"
         d="M 2.4799578,3.9199333 H 365.35379 V 136.23768 H 2.4799578 Z"
         id="path67863" /><path
         style="fill:#7f7f7f;fill-opacity:1;fill-rule:evenodd;stroke:none"
         d="M 47.919185,55.759052 V 67.118859 H 312.39469 V 55.759052 Z"
         id="path67865" /><path
         style="fill:#ffffff;fill-opacity:1;fill-rule:evenodd;stroke:none"
         d="M 32.799442,91.838438 47.919185,61.598952 63.038928,91.838438 Z"
         id="path67867" /><path
         style="fill:none;stroke:#404040;stroke-width:2.71995px;stroke-linecap:butt;stroke-linejoin:miter;stroke-miterlimit:8;stroke-dasharray:none;stroke-opacity:1"
         d="M 32.799442,91.838438 47.919185,61.598952 63.038928,91.838438 Z"
         id="path67869" /><path
         style="fill:#ffffff;fill-opacity:1;fill-rule:evenodd;stroke:none"
         d="m 41.279298,61.678951 c 0,-3.659938 2.979949,-6.639887 6.639887,-6.639887 3.679937,0 6.639887,2.979949 6.639887,6.639887 0,3.679937 -2.95995,6.639887 -6.639887,6.639887 -3.659938,0 -6.639887,-2.95995 -6.639887,-6.639887 z"
         id="path67871" /><path
         style="fill:none;stroke:#404040;stroke-width:2.71995px;stroke-linecap:butt;stroke-linejoin:miter;stroke-miterlimit:8;stroke-dasharray:none;stroke-opacity:1"
         d="m 41.279298,61.678951 c 0,-3.659938 2.979949,-6.639887 6.639887,-6.639887 3.679937,0 6.639887,2.979949 6.639887,6.639887 0,3.679937 -2.95995,6.639887 -6.639887,6.639887 -3.659938,0 -6.639887,-2.95995 -6.639887,-6.639887"
         id="path67873" /><path
         style="fill:none;stroke:#404040;stroke-width:2.71995px;stroke-linecap:butt;stroke-linejoin:miter;stroke-miterlimit:8;stroke-dasharray:none;stroke-opacity:1"
         d="M 25.27957,91.998435 H 70.638799"
         id="path67875" /><path
         style="fill:none;stroke:#404040;stroke-width:1.27998px;stroke-linecap:butt;stroke-linejoin:miter;stroke-miterlimit:8;stroke-dasharray:none;stroke-opacity:1"
         d="M 36.539379,91.918437 25.199571,103.25824"
         id="path67877" /><path
         style="fill:none;stroke:#404040;stroke-width:1.27998px;stroke-linecap:butt;stroke-linejoin:miter;stroke-miterlimit:8;stroke-dasharray:none;stroke-opacity:1"
         d="M 47.899185,91.918437 36.559378,103.25824"
         id="path67879" /><path
         style="fill:none;stroke:#404040;stroke-width:1.27998px;stroke-linecap:butt;stroke-linejoin:miter;stroke-miterlimit:8;stroke-dasharray:none;stroke-opacity:1"
         d="M 59.258992,91.918437 47.919185,103.25824"
         id="path67881" /><path
         style="fill:none;stroke:#404040;stroke-width:1.27998px;stroke-linecap:butt;stroke-linejoin:miter;stroke-miterlimit:8;stroke-dasharray:none;stroke-opacity:1"
         d="M 70.138807,91.918437 58.799,103.25824"
         id="path67883" /><path
         style="fill:none;stroke:#000000;stroke-width:1.27998px;stroke-linecap:butt;stroke-linejoin:miter;stroke-miterlimit:8;stroke-dasharray:none;stroke-opacity:1"
         d="m 9.9998299,20.55965 c 0,-5.199911 4.2399281,-9.439839 9.4398391,-9.439839 5.219912,0 9.43984,4.239928 9.43984,9.439839 0,5.219912 -4.219928,9.43984 -9.43984,9.43984 -5.199911,0 -9.4398391,-4.219928 -9.4398391,-9.43984"
         id="path67885" /><g
         aria-label="A"
         transform="translate(13.323094,27.49256)"
         id="text67891"
         style="font-size:18.75px;line-height:125%;font-family:Arial;letter-spacing:0px;word-spacing:0px"><path
           d="M -0.02746582,0 5.1269531,-13.421631 H 7.0404053 L 12.533569,0 H 10.510254 L 8.9447021,-4.0649414 H 3.3325195 L 1.8585205,0 Z M 3.8452148,-5.5114746 H 8.3953857 L 6.9946289,-9.2285156 Q 6.3537598,-10.922241 6.0424805,-12.011719 5.7861328,-10.720825 5.3192139,-9.4482422 Z"
           id="path69167" /></g><path
         style="fill:#ffffff;fill-opacity:1;fill-rule:evenodd;stroke:none"
         d="m 297.43494,91.038452 15.11974,-30.239486 15.11975,30.239486 z"
         id="path67893" /><path
         style="fill:none;stroke:#404040;stroke-width:2.71995px;stroke-linecap:butt;stroke-linejoin:miter;stroke-miterlimit:8;stroke-dasharray:none;stroke-opacity:1"
         d="m 297.43494,91.038452 15.11974,-30.239486 15.11975,30.239486 z"
         id="path67895" /><path
         style="fill:#ffffff;fill-opacity:1;fill-rule:evenodd;stroke:none"
         d="m 306.07479,61.678951 c 0,-3.639938 2.95995,-6.639887 6.55989,-6.639887 3.63994,0 6.55989,2.999949 6.55989,6.639887 0,3.679937 -2.91995,6.639887 -6.55989,6.639887 -3.59994,0 -6.55989,-2.95995 -6.55989,-6.639887 z"
         id="path67897" /><path
         style="fill:none;stroke:#404040;stroke-width:2.71995px;stroke-linecap:butt;stroke-linejoin:miter;stroke-miterlimit:8;stroke-dasharray:none;stroke-opacity:1"
         d="m 306.07479,61.678951 c 0,-3.639938 2.95995,-6.639887 6.55989,-6.639887 3.63994,0 6.55989,2.999949 6.55989,6.639887 0,3.679937 -2.91995,6.639887 -6.55989,6.639887 -3.59994,0 -6.55989,-2.95995 -6.55989,-6.639887"
         id="path67899" /><path
         style="fill:none;stroke:#404040;stroke-width:2.71995px;stroke-linecap:butt;stroke-linejoin:miter;stroke-miterlimit:8;stroke-dasharray:none;stroke-opacity:1"
         d="M 289.91507,98.558324 H 335.2743"
         id="path67901" /><path
         style="fill:none;stroke:#404040;stroke-width:1.27998px;stroke-linecap:butt;stroke-linejoin:miter;stroke-miterlimit:8;stroke-dasharray:none;stroke-opacity:1"
         d="M 301.19488,98.478325 289.83507,109.83813"
         id="path67903" /><path
         style="fill:none;stroke:#404040;stroke-width:1.27998px;stroke-linecap:butt;stroke-linejoin:miter;stroke-miterlimit:8;stroke-dasharray:none;stroke-opacity:1"
         d="M 312.39469,98.478325 301.03488,109.83813"
         id="path67905" /><path
         style="fill:none;stroke:#404040;stroke-width:1.27998px;stroke-linecap:butt;stroke-linejoin:miter;stroke-miterlimit:8;stroke-dasharray:none;stroke-opacity:1"
         d="m 323.75449,98.478325 -11.3598,11.359805"
         id="path67907" /><path
         style="fill:none;stroke:#404040;stroke-width:1.27998px;stroke-linecap:butt;stroke-linejoin:miter;stroke-miterlimit:8;stroke-dasharray:none;stroke-opacity:1"
         d="M 334.63431,98.478325 323.2745,109.83813"
         id="path67909" /><path
         style="fill:none;stroke:#000000;stroke-width:1.27998px;stroke-linecap:butt;stroke-linejoin:miter;stroke-miterlimit:8;stroke-dasharray:none;stroke-opacity:1"
         d="m 335.1143,21.039642 c 0,-5.199911 4.23993,-9.439839 9.43984,-9.439839 5.23991,0 9.43984,4.239928 9.43984,9.439839 0,5.239911 -4.19993,9.43984 -9.43984,9.43984 -5.19991,0 -9.43984,-4.199929 -9.43984,-9.43984"
         id="path67911" /><g
         aria-label="B"
         transform="translate(338.39307,27.951224)"
         id="text67917"
         style="font-size:18.75px;line-height:125%;font-family:Arial;letter-spacing:0px;word-spacing:0px"><path
           d="m 1.373291,0 v -13.421631 h 5.0354004 q 1.5380859,0 2.4627686,0.411987 0.9338379,0.402832 1.455688,1.254273 0.531006,0.842285 0.531006,1.7669677 0,0.8605957 -0.466919,1.6204834 -0.4669186,0.7598877 -1.4099118,1.2268066 1.2176518,0.3570557 1.8676758,1.2176514 0.65918,0.8605957 0.65918,2.0324707 0,0.9429932 -0.402832,1.7578125 -0.393677,0.8056641 -0.979615,1.24511718 Q 9.5397949,-0.4486084 8.6517334,-0.21972656 7.7728271,0 6.4910889,0 Z m 1.7761231,-7.7819824 h 2.9022216 q 1.1810303,0 1.6937256,-0.1556397 0.6774903,-0.201416 1.0162354,-0.6683349 0.3479004,-0.466919 0.3479004,-1.171875 0,-0.668335 -0.3204346,-1.171875 -0.3204346,-0.512695 -0.9155273,-0.695801 -0.5950928,-0.192261 -2.041626,-0.192261 H 3.1494141 Z m 0,6.1981201 h 3.3416748 q 0.8605957,0 1.2084961,-0.064087 0.6134033,-0.1098633 1.0253906,-0.366211 0.4119873,-0.2563476 0.6774902,-0.7415771 0.265503,-0.4943848 0.265503,-1.1352539 0,-0.7507324 -0.3845215,-1.3000488 Q 8.8989258,-5.7495117 8.2122803,-5.9692383 7.53479,-6.1981201 6.2530518,-6.1981201 H 3.1494141 Z"
           id="path69176" /></g><path
         style="fill:#000000;fill-opacity:1;fill-rule:nonzero;stroke:#000000;stroke-width:0.0399993px;stroke-linecap:butt;stroke-linejoin:round;stroke-miterlimit:4;stroke-dasharray:none;stroke-opacity:1"
         d="M 59.918981,77.998673 H 300.51489 v 1.319978 H 59.918981 Z m 1.359977,3.319944 -13.359773,-2.679954 13.359773,-2.639955 z m 237.875952,-5.319909 13.35978,2.639955 -13.35978,2.679954 z"
         id="path67919" /><path
         style="fill:none;stroke:#000000;stroke-width:1.27998px;stroke-linecap:butt;stroke-linejoin:miter;stroke-miterlimit:8;stroke-dasharray:none;stroke-opacity:1"
         d="M 312.39469,60.718967 V 83.398582"
         id="path67921" /><g
         aria-label="l"
         transform="translate(179.5878,104.34647)"
         id="text67927"
         style="font-size:21.25px;line-height:125%;font-family:Arial;letter-spacing:0px;word-spacing:0px"><path
           d="M 1.3592529,0 V -15.211182 H 3.2269287 V 0 Z"
           id="path69199" /></g><path
         style="fill:#70ad47;fill-opacity:1;fill-rule:nonzero;stroke:#70ad47;stroke-width:0.0399993px;stroke-linecap:butt;stroke-linejoin:round;stroke-miterlimit:4;stroke-dasharray:none;stroke-opacity:1"
         clip-path="url(#clipEmfPath1)"
         d="M 47.999184,60.718967 H 350.27404 v 2.079965 H 47.999184 Z m 290.555056,-3.279944 15.59974,4.319927 -15.59974,4.359926 c -0.55999,0.159997 -1.11998,-0.159998 -1.27998,-0.719988 -0.15999,-0.559991 0.16,-1.119981 0.71999,-1.279978 l 11.9998,-3.359943 v 2.039965 l -11.9998,-3.359943 c -0.55999,-0.159997 -0.87998,-0.719988 -0.71999,-1.279978 0.16,-0.559991 0.71999,-0.879985 1.27998,-0.719988 z"
         id="path67929" /><g
         aria-label="x"
         transform="translate(348.65321,54.5954)"
         id="text67935"
         style="font-size:21.25px;line-height:125%;font-family:Arial;letter-spacing:0px;word-spacing:0px"><path
           d="M 0.15563965,0 4.1815186,-5.7275391 0.45654297,-11.019287 H 2.7911377 l 1.6912842,2.5836181 q 0.4772949,0.7366943 0.7678222,1.2347412 0.456543,-0.6848145 0.8404541,-1.2139893 l 1.8572998,-2.60437 h 2.230835 L 6.3708496,-5.8312988 10.46936,0 H 8.1762695 L 5.9143066,-3.4240723 5.3125,-4.3475342 2.4176025,0 Z"
           style="fill:#70ad47"
           id="path69179" /></g><path
         style="fill:#70ad47;fill-opacity:1;fill-rule:nonzero;stroke:#70ad47;stroke-width:0.0199997px;stroke-linecap:butt;stroke-linejoin:round;stroke-miterlimit:4;stroke-dasharray:none;stroke-opacity:1"
         clip-path="url(#clipEmfPath1)"
         d="M 49.039166,61.598952 V 125.75786 H 46.959201 V 61.598952 Z m 3.299944,52.439108 -4.339926,15.59974 -4.319927,-15.59974 c -0.159997,-0.55999 0.159997,-1.11998 0.719988,-1.27998 0.55999,-0.15999 1.119981,0.16 1.279978,0.71999 l 3.339943,11.9998 h -2.019965 l 3.339943,-11.9998 c 0.159997,-0.55999 0.719988,-0.87998 1.279978,-0.71999 0.559991,0.16 0.879985,0.71999 0.719988,1.27998 z"
         id="path67937" /><g
         aria-label="y"
         transform="translate(16.023438,59.89945)"
         id="text67943"
         style="font-size:21.25px;line-height:125%;font-family:Arial;letter-spacing:0px;word-spacing:0px"><path
           d="M 1.317749,4.2437744 1.1102295,2.4902344 Q 1.7224121,2.65625 2.1789551,2.65625 q 0.6225586,0 0.9960937,-0.2075195 Q 3.548584,2.2412109 3.7872314,1.8676758 3.963623,1.5875244 4.3579102,0.47729492 4.40979,0.32165527 4.5239258,0.02075195 L 0.34240723,-11.019287 H 2.3553467 l 2.2930908,6.3812255 q 0.446167,1.2139892 0.7989502,2.5524902 Q 5.769043,-3.3721924 6.21521,-4.5965576 L 8.5705566,-11.019287 H 10.438232 L 6.2463379,0.18676758 Q 5.5718994,2.0025635 5.1983643,2.6873779 4.7003174,3.6108398 4.0570068,4.0362549 q -0.6433105,0.435791 -1.5356445,0.435791 -0.5395508,0 -1.2036133,-0.2282715 z"
           style="fill:#70ad47"
           id="path69193" /></g><path
         style="fill:#ffffff;fill-opacity:1;fill-rule:evenodd;stroke:none"
         d="m 44.159249,61.678951 c 0,-2.059965 1.699971,-3.759936 3.759936,-3.759936 2.079965,0 3.759936,1.699971 3.759936,3.759936 0,2.079965 -1.679971,3.759936 -3.759936,3.759936 -2.059965,0 -3.759936,-1.679971 -3.759936,-3.759936 z"
         id="path67945" /><path
         style="fill:none;stroke:#70ad47;stroke-width:2.07996px;stroke-linecap:butt;stroke-linejoin:miter;stroke-miterlimit:8;stroke-dasharray:none;stroke-opacity:1"
         d="m 44.159249,61.678951 c 0,-2.059965 1.699971,-3.759936 3.759936,-3.759936 2.079965,0 3.759936,1.699971 3.759936,3.759936 0,2.079965 -1.679971,3.759936 -3.759936,3.759936 -2.059965,0 -3.759936,-1.679971 -3.759936,-3.759936"
         id="path67947" /><g
         aria-label="z"
         transform="translate(61.382042,126.41316)"
         id="text67953"
         style="font-size:21.25px;line-height:125%;font-family:Arial;letter-spacing:0px;word-spacing:0px"><path
           d="M 0.41503906,0 V -1.5148926 L 7.4291992,-9.5666504 q -1.1932373,0.062256 -2.1063232,0.062256 H 0.83007813 V -11.019287 H 9.8364258 v 1.2347411 l -5.9661865,6.9934082 -1.1517334,1.2762451 q 1.2554931,-0.093384 2.3553466,-0.093384 H 10.168457 V 0 Z"
           style="fill:#70ad47"
           id="path69196" /></g><path
         style="fill:#4472c4;fill-opacity:1;fill-rule:nonzero;stroke:#4472c4;stroke-width:0.0199997px;stroke-linecap:butt;stroke-linejoin:round;stroke-miterlimit:4;stroke-dasharray:none;stroke-opacity:1"
         d="m 86.798524,47.679189 v 3.55994 h -2.079965 v -3.55994 z m 1.639972,2.239962 -2.679954,5.31991 -2.659955,-5.31991 z"
         id="path67955" /><path
         style="fill:#4472c4;fill-opacity:1;fill-rule:nonzero;stroke:#4472c4;stroke-width:0.0199997px;stroke-linecap:butt;stroke-linejoin:round;stroke-miterlimit:4;stroke-dasharray:none;stroke-opacity:1"
         d="m 105.6782,43.999252 v 7.339875 h -2.07996 v -7.339875 z m 1.63997,6.019897 -2.67995,5.31991 -2.65995,-5.31991 z"
         id="path67957" /><path
         style="fill:#4472c4;fill-opacity:1;fill-rule:nonzero;stroke:#4472c4;stroke-width:0.0199997px;stroke-linecap:butt;stroke-linejoin:round;stroke-miterlimit:4;stroke-dasharray:none;stroke-opacity:1"
         d="m 124.55788,40.159317 v 11.119811 h -2.07996 V 40.159317 Z m 1.63997,9.799833 -2.67995,5.31991 -2.65996,-5.31991 z"
         id="path67959" /><path
         style="fill:#4472c4;fill-opacity:1;fill-rule:nonzero;stroke:#4472c4;stroke-width:0.0199997px;stroke-linecap:butt;stroke-linejoin:round;stroke-miterlimit:4;stroke-dasharray:none;stroke-opacity:1"
         d="M 143.43756,38.23935 V 51.259128 H 141.3576 V 38.23935 Z m 1.63997,11.679801 -2.67995,5.339909 -2.65996,-5.339909 z"
         id="path67961" /><path
         style="fill:#4472c4;fill-opacity:1;fill-rule:nonzero;stroke:#4472c4;stroke-width:0.0199997px;stroke-linecap:butt;stroke-linejoin:round;stroke-miterlimit:4;stroke-dasharray:none;stroke-opacity:1"
         d="m 162.31724,34.559412 v 16.799715 h -2.07997 V 34.559412 Z m 1.63997,15.459737 -2.67995,5.33991 -2.65996,-5.33991 z"
         id="path67963" /><path
         style="fill:#4472c4;fill-opacity:1;fill-rule:nonzero;stroke:#4472c4;stroke-width:0.0199997px;stroke-linecap:butt;stroke-linejoin:round;stroke-miterlimit:4;stroke-dasharray:none;stroke-opacity:1"
         d="m 181.19692,30.719478 v 20.57965 h -2.07997 v -20.57965 z m 1.63997,19.239672 -2.67995,5.33991 -2.65996,-5.33991 z"
         id="path67965" /><path
         style="fill:#4472c4;fill-opacity:1;fill-rule:nonzero;stroke:#4472c4;stroke-width:0.0399993px;stroke-linecap:butt;stroke-linejoin:round;stroke-miterlimit:4;stroke-dasharray:none;stroke-opacity:1"
         d="m 219.59627,25.119573 v 25.679563 h -3.03995 V 25.119573 Z m 1.51997,24.159589 -3.03995,6.079897 -3.03995,-6.079897 z"
         id="path67967" /><path
         style="fill:#4472c4;fill-opacity:1;fill-rule:nonzero;stroke:#4472c4;stroke-width:0.0399993px;stroke-linecap:butt;stroke-linejoin:round;stroke-miterlimit:4;stroke-dasharray:none;stroke-opacity:1"
         d="m 200.0766,28.79951 v 22.479618 h -2.07997 V 28.79951 Z m 1.63997,21.15964 -2.67995,5.31991 -2.63996,-5.31991 z"
         id="path67969" /><path
         style="fill:#4472c4;fill-opacity:1;fill-rule:nonzero;stroke:#4472c4;stroke-width:0.0399993px;stroke-linecap:butt;stroke-linejoin:round;stroke-miterlimit:4;stroke-dasharray:none;stroke-opacity:1"
         d="m 237.99595,30.719478 v 20.599649 h -2.07996 V 30.719478 Z m 1.63997,19.239672 -2.67995,5.359909 -2.63995,-5.359909 z"
         id="path67971" /><path
         style="fill:#4472c4;fill-opacity:1;fill-rule:nonzero;stroke:#4472c4;stroke-width:0.0399993px;stroke-linecap:butt;stroke-linejoin:round;stroke-miterlimit:4;stroke-dasharray:none;stroke-opacity:1"
         d="m 256.87563,36.319382 v 14.919747 h -2.07996 V 36.319382 Z m 1.63997,13.599769 -2.67995,5.31991 -2.63996,-5.31991 z"
         id="path67973" /><path
         style="fill:#4472c4;fill-opacity:1;fill-rule:nonzero;stroke:#4472c4;stroke-width:0.0399993px;stroke-linecap:butt;stroke-linejoin:round;stroke-miterlimit:4;stroke-dasharray:none;stroke-opacity:1"
         d="m 275.75531,42.079284 v 9.239843 h -2.07996 v -9.239843 z m 1.63997,7.919866 -2.67995,5.319909 -2.63996,-5.319909 z"
         id="path67975" /><path
         style="fill:#4472c4;fill-opacity:1;fill-rule:nonzero;stroke:#4472c4;stroke-width:0.0399993px;stroke-linecap:butt;stroke-linejoin:round;stroke-miterlimit:4;stroke-dasharray:none;stroke-opacity:1"
         d="m 294.63499,47.679189 v 3.55994 h -2.07997 v -3.55994 z m 1.63997,2.239962 -2.67995,5.31991 -2.63996,-5.31991 z"
         id="path67977" /><path
         style="fill:#4472c4;fill-opacity:1;fill-rule:nonzero;stroke:#4472c4;stroke-width:0.0199997px;stroke-linecap:butt;stroke-linejoin:round;stroke-miterlimit:4;stroke-dasharray:none;stroke-opacity:1"
         d="m 69.558817,49.97915 -2.679954,5.31991 -2.659955,-5.31991 z"
         id="path67979" /><path
         style="fill:none;stroke:#4472c4;stroke-width:2.07996px;stroke-linecap:butt;stroke-linejoin:miter;stroke-miterlimit:8;stroke-dasharray:none;stroke-opacity:1"
         d="M 47.999184,53.559089 218.27629,25.119573 312.63468,53.759086"
         id="path67981" /><g
         aria-label="q"
         transform="translate(227.61566,22.10062)"
         id="text67987"
         style="font-size:21.25px;line-height:125%;font-family:Arial;letter-spacing:0px;word-spacing:0px"><path
           d="m 8.425293,4.2230225 v -5.3955079 q -0.435791,0.61218267 -1.2243653,1.01684575 -0.7781982,0.40466309 -1.6601562,0.40466309 -1.9610596,0 -3.3825684,-1.56677244 -1.41113279,-1.5667725 -1.41113279,-4.2956543 0,-1.6601563 0.57067869,-2.9779053 0.5810547,-1.317749 1.6705323,-1.9921874 1.0998535,-0.684815 2.4072265,-0.684815 2.0440674,0 3.2165527,1.7224126 V -11.019287 H 10.292969 V 4.2230225 Z m -5.758667,-9.763794 q 0,2.1270752 0.892334,3.1958008 0.8923339,1.0583496 2.1374511,1.0583496 1.1932373,0 2.0544434,-1.0064697 0.861206,-1.0168457 0.861206,-3.0816651 0,-2.199707 -0.9130859,-3.3099365 -0.90271,-1.1102295 -2.1270752,-1.1102295 -1.2139892,0 -2.0648193,1.0375977 -0.8404541,1.0272217 -0.8404541,3.2165527 z"
           style="fill:#4472c4"
           id="path69173" /></g><path
         style="fill:#000000;fill-opacity:1;fill-rule:nonzero;stroke:#000000;stroke-width:0.0399993px;stroke-linecap:butt;stroke-linejoin:round;stroke-miterlimit:4;stroke-dasharray:none;stroke-opacity:1"
         d="M 59.918981,33.51943 H 202.23656 v 1.319977 H 59.918981 Z m 1.359977,3.319943 -13.359773,-2.679954 13.359773,-2.639955 z m 139.637622,-5.319909 13.31978,2.639955 -13.31978,2.679954 z"
         id="path67989" /><path
         style="fill:none;stroke:#000000;stroke-width:1.27998px;stroke-linecap:butt;stroke-linejoin:miter;stroke-miterlimit:8;stroke-dasharray:none;stroke-opacity:1"
         d="M 47.919185,22.95961 V 53.199095"
         id="path67991" /><g
         aria-label="a"
         transform="translate(126.92026,24.356324)"
         id="text67997"
         style="font-size:21.25px;line-height:125%;font-family:Arial;letter-spacing:0px;word-spacing:0px"><path
           d="m 8.5913086,-1.3592529 q -1.0375977,0.88195798 -2.0025635,1.24511716 -0.9545898,0.36315918 -2.0544433,0.36315918 -1.8157959,0 -2.7911377,-0.88195801 -0.97534183,-0.89233403 -0.97534183,-2.27233883 0,-0.8093262 0.36315913,-1.4733887 0.3735352,-0.6744385 0.9649659,-1.0791016 0.6018066,-0.4046631 1.3488769,-0.6121826 0.5499268,-0.1452637 1.6601563,-0.2801514 2.2619629,-0.2697753 3.3306884,-0.6433105 0.010376,-0.3839111 0.010376,-0.4876709 0,-1.1413574 -0.5291748,-1.6082764 Q 7.2009277,-9.72229 5.7897949,-9.72229 q -1.317749,0 -1.9506836,0.4669189 -0.6225586,0.456543 -0.9234619,1.6290283 L 1.0894775,-7.8753662 Q 1.338501,-9.0478516 1.9091797,-9.7637939 2.4798584,-10.490112 3.55896,-10.874023 q 1.0791015,-0.394288 2.5006103,-0.394288 1.4111328,0 2.2930908,0.332032 0.881958,0.332031 1.2969971,0.840454 0.4150388,0.4980467 0.5810548,1.2658689 0.09338,0.477295 0.09338,1.7224122 v 2.4902343 q 0,2.6043701 0.114135,3.2995606 Q 10.562744,-0.63293457 10.915527,0 H 8.9648438 Q 8.6743164,-0.58105469 8.5913086,-1.3592529 Z M 8.4356689,-5.5303955 q -1.0168457,0.4150391 -3.0505371,0.7055664 -1.1517334,0.1660156 -1.6290283,0.3735352 -0.4772949,0.2075195 -0.7366943,0.6121826 -0.2593994,0.3942871 -0.2593994,0.881958 0,0.7470703 0.5603027,1.2451172 0.5706787,0.4980468 1.6601562,0.4980468 1.0791016,0 1.9195557,-0.4669189 0.8404541,-0.4772949 1.2347412,-1.2969971 0.3009033,-0.6329345 0.3009033,-1.8676758 z"
           id="path69170" /></g></g></g><metadata
     id="metadata68802"><rdf:RDF><cc:Work
         rdf:about=""><dc:date>2023-07-11</dc:date><dc:creator><cc:Agent><dc:title>s-quirin</dc:title></cc:Agent></dc:creator><cc:license
           rdf:resource="http://creativecommons.org/licenses/by-sa/4.0/" /></cc:Work><cc:License
         rdf:about="http://creativecommons.org/licenses/by-sa/4.0/"><cc:permits
           rdf:resource="http://creativecommons.org/ns#Reproduction" /><cc:permits
           rdf:resource="http://creativecommons.org/ns#Distribution" /><cc:requires
           rdf:resource="http://creativecommons.org/ns#Notice" /><cc:requires
           rdf:resource="http://creativecommons.org/ns#Attribution" /><cc:permits
           rdf:resource="http://creativecommons.org/ns#DerivativeWorks" /><cc:requires
           rdf:resource="http://creativecommons.org/ns#ShareAlike" /></cc:License></rdf:RDF></metadata></svg>
