<?xml version="1.0" encoding="UTF-8" standalone="no"?>
<!-- Created with Inkscape (http://www.inkscape.org/) -->

<svg
   width="96.179695mm"
   height="35.178402mm"
   viewBox="0 0 96.179695 35.178402"
   version="1.1"
   id="svg4495"
   xml:space="preserve"
   xmlns="http://www.w3.org/2000/svg"
   xmlns:svg="http://www.w3.org/2000/svg"
   xmlns:rdf="http://www.w3.org/1999/02/22-rdf-syntax-ns#"
   xmlns:cc="http://creativecommons.org/ns#"
   xmlns:dc="http://purl.org/dc/elements/1.1/"><defs
     id="defs4492"><clipPath
       clipPathUnits="userSpaceOnUse"
       id="clipEmfPath1"><path
         d="M 1.2799782,-3.8399347 H 372.79366 V 147.1975 H 1.2799782 Z"
         id="path4499" /></clipPath></defs><g
     id="layer1"
     transform="translate(92.445307,-75.012547)"><g
       id="g4677"
       transform="matrix(0.26458333,0,0,0.26458333,-93.016797,74.060063)"><path
         style="fill:#7f7f7f;fill-opacity:1;fill-rule:evenodd;stroke:none"
         d="M 47.919185,55.759052 V 67.118859 H 312.39469 V 55.759052 Z"
         id="path4505" /><path
         style="fill:#ffffff;fill-opacity:1;fill-rule:evenodd;stroke:none"
         d="M 32.799442,91.838438 47.919185,61.598952 63.038928,91.838438 Z"
         id="path4507" /><path
         style="fill:none;stroke:#404040;stroke-width:2.71995px;stroke-linecap:butt;stroke-linejoin:miter;stroke-miterlimit:8;stroke-dasharray:none;stroke-opacity:1"
         d="M 32.799442,91.838438 47.919185,61.598952 63.038928,91.838438 Z"
         id="path4509" /><path
         style="fill:#ffffff;fill-opacity:1;fill-rule:evenodd;stroke:none"
         d="m 41.279298,61.678951 c 0,-3.659938 2.979949,-6.639887 6.639887,-6.639887 3.679937,0 6.639887,2.979949 6.639887,6.639887 0,3.679937 -2.95995,6.639887 -6.639887,6.639887 -3.659938,0 -6.639887,-2.95995 -6.639887,-6.639887 z"
         id="path4511" /><path
         style="fill:none;stroke:#404040;stroke-width:2.71995px;stroke-linecap:butt;stroke-linejoin:miter;stroke-miterlimit:8;stroke-dasharray:none;stroke-opacity:1"
         d="m 41.279298,61.678951 c 0,-3.659938 2.979949,-6.639887 6.639887,-6.639887 3.679937,0 6.639887,2.979949 6.639887,6.639887 0,3.679937 -2.95995,6.639887 -6.639887,6.639887 -3.659938,0 -6.639887,-2.95995 -6.639887,-6.639887"
         id="path4513" /><path
         style="fill:none;stroke:#404040;stroke-width:2.71995px;stroke-linecap:butt;stroke-linejoin:miter;stroke-miterlimit:8;stroke-dasharray:none;stroke-opacity:1"
         d="M 25.27957,91.998435 H 70.638799"
         id="path4515" /><path
         style="fill:none;stroke:#404040;stroke-width:1.27998px;stroke-linecap:butt;stroke-linejoin:miter;stroke-miterlimit:8;stroke-dasharray:none;stroke-opacity:1"
         d="M 36.539379,91.918437 25.199571,103.25824"
         id="path4517" /><path
         style="fill:none;stroke:#404040;stroke-width:1.27998px;stroke-linecap:butt;stroke-linejoin:miter;stroke-miterlimit:8;stroke-dasharray:none;stroke-opacity:1"
         d="M 47.899185,91.918437 36.559378,103.25824"
         id="path4519" /><path
         style="fill:none;stroke:#404040;stroke-width:1.27998px;stroke-linecap:butt;stroke-linejoin:miter;stroke-miterlimit:8;stroke-dasharray:none;stroke-opacity:1"
         d="M 59.258992,91.918437 47.919185,103.25824"
         id="path4521" /><path
         style="fill:none;stroke:#404040;stroke-width:1.27998px;stroke-linecap:butt;stroke-linejoin:miter;stroke-miterlimit:8;stroke-dasharray:none;stroke-opacity:1"
         d="M 70.138807,91.918437 58.799,103.25824"
         id="path4523" /><path
         style="fill:none;stroke:#000000;stroke-width:1.27998px;stroke-linecap:butt;stroke-linejoin:miter;stroke-miterlimit:8;stroke-dasharray:none;stroke-opacity:1"
         d="m 9.9998299,20.55965 c 0,-5.199911 4.2399281,-9.439839 9.4398391,-9.439839 5.219912,0 9.43984,4.239928 9.43984,9.439839 0,5.219912 -4.219928,9.43984 -9.43984,9.43984 -5.199911,0 -9.4398391,-4.219928 -9.4398391,-9.43984"
         id="path4525" /><g
         aria-label="A"
         transform="translate(13.323094,27.49256)"
         id="text4531"
         style="font-size:18.75px;line-height:125%;font-family:Arial;letter-spacing:0px;word-spacing:0px"><path
           d="M -0.02746582,0 5.1269531,-13.421631 H 7.0404053 L 12.533569,0 H 10.510254 L 8.9447021,-4.0649414 H 3.3325195 L 1.8585205,0 Z M 3.8452148,-5.5114746 H 8.3953857 L 6.9946289,-9.2285156 Q 6.3537598,-10.922241 6.0424805,-12.011719 5.7861328,-10.720825 5.3192139,-9.4482422 Z"
           id="path4679" /></g><path
         style="fill:#ffffff;fill-opacity:1;fill-rule:evenodd;stroke:none"
         d="m 297.43494,91.038452 15.11974,-30.239486 15.11975,30.239486 z"
         id="path4533" /><path
         style="fill:none;stroke:#404040;stroke-width:2.71995px;stroke-linecap:butt;stroke-linejoin:miter;stroke-miterlimit:8;stroke-dasharray:none;stroke-opacity:1"
         d="m 297.43494,91.038452 15.11974,-30.239486 15.11975,30.239486 z"
         id="path4535" /><path
         style="fill:#ffffff;fill-opacity:1;fill-rule:evenodd;stroke:none"
         d="m 306.07479,61.678951 c 0,-3.639938 2.95995,-6.639887 6.55989,-6.639887 3.63994,0 6.55989,2.999949 6.55989,6.639887 0,3.679937 -2.91995,6.639887 -6.55989,6.639887 -3.59994,0 -6.55989,-2.95995 -6.55989,-6.639887 z"
         id="path4537" /><path
         style="fill:none;stroke:#404040;stroke-width:2.71995px;stroke-linecap:butt;stroke-linejoin:miter;stroke-miterlimit:8;stroke-dasharray:none;stroke-opacity:1"
         d="m 306.07479,61.678951 c 0,-3.639938 2.95995,-6.639887 6.55989,-6.639887 3.63994,0 6.55989,2.999949 6.55989,6.639887 0,3.679937 -2.91995,6.639887 -6.55989,6.639887 -3.59994,0 -6.55989,-2.95995 -6.55989,-6.639887"
         id="path4539" /><path
         style="fill:none;stroke:#404040;stroke-width:2.71995px;stroke-linecap:butt;stroke-linejoin:miter;stroke-miterlimit:8;stroke-dasharray:none;stroke-opacity:1"
         d="M 289.91507,98.558324 H 335.2743"
         id="path4541" /><path
         style="fill:none;stroke:#404040;stroke-width:1.27998px;stroke-linecap:butt;stroke-linejoin:miter;stroke-miterlimit:8;stroke-dasharray:none;stroke-opacity:1"
         d="M 301.19488,98.478325 289.83507,109.83813"
         id="path4543" /><path
         style="fill:none;stroke:#404040;stroke-width:1.27998px;stroke-linecap:butt;stroke-linejoin:miter;stroke-miterlimit:8;stroke-dasharray:none;stroke-opacity:1"
         d="M 312.39469,98.478325 301.03488,109.83813"
         id="path4545" /><path
         style="fill:none;stroke:#404040;stroke-width:1.27998px;stroke-linecap:butt;stroke-linejoin:miter;stroke-miterlimit:8;stroke-dasharray:none;stroke-opacity:1"
         d="m 323.75449,98.478325 -11.3598,11.359805"
         id="path4547" /><path
         style="fill:none;stroke:#404040;stroke-width:1.27998px;stroke-linecap:butt;stroke-linejoin:miter;stroke-miterlimit:8;stroke-dasharray:none;stroke-opacity:1"
         d="M 334.63431,98.478325 323.2745,109.83813"
         id="path4549" /><path
         style="fill:none;stroke:#000000;stroke-width:1.27998px;stroke-linecap:butt;stroke-linejoin:miter;stroke-miterlimit:8;stroke-dasharray:none;stroke-opacity:1"
         d="m 335.1143,21.039642 c 0,-5.199911 4.23993,-9.439839 9.43984,-9.439839 5.23991,0 9.43984,4.239928 9.43984,9.439839 0,5.239911 -4.19993,9.43984 -9.43984,9.43984 -5.19991,0 -9.43984,-4.199929 -9.43984,-9.43984"
         id="path4551" /><g
         aria-label="B"
         transform="translate(338.39307,27.951224)"
         id="text4557"
         style="font-size:18.75px;line-height:125%;font-family:Arial;letter-spacing:0px;word-spacing:0px"><path
           d="m 1.373291,0 v -13.421631 h 5.0354004 q 1.5380859,0 2.4627686,0.411987 0.9338379,0.402832 1.455688,1.254273 0.531006,0.842285 0.531006,1.7669677 0,0.8605957 -0.466919,1.6204834 -0.4669186,0.7598877 -1.4099118,1.2268066 1.2176518,0.3570557 1.8676758,1.2176514 0.65918,0.8605957 0.65918,2.0324707 0,0.9429932 -0.402832,1.7578125 -0.393677,0.8056641 -0.979615,1.24511718 Q 9.5397949,-0.4486084 8.6517334,-0.21972656 7.7728271,0 6.4910889,0 Z m 1.7761231,-7.7819824 h 2.9022216 q 1.1810303,0 1.6937256,-0.1556397 0.6774903,-0.201416 1.0162354,-0.6683349 0.3479004,-0.466919 0.3479004,-1.171875 0,-0.668335 -0.3204346,-1.171875 -0.3204346,-0.512695 -0.9155273,-0.695801 -0.5950928,-0.192261 -2.041626,-0.192261 H 3.1494141 Z m 0,6.1981201 h 3.3416748 q 0.8605957,0 1.2084961,-0.064087 0.6134033,-0.1098633 1.0253906,-0.366211 0.4119873,-0.2563476 0.6774902,-0.7415771 0.265503,-0.4943848 0.265503,-1.1352539 0,-0.7507324 -0.3845215,-1.3000488 Q 8.8989258,-5.7495117 8.2122803,-5.9692383 7.53479,-6.1981201 6.2530518,-6.1981201 H 3.1494141 Z"
           id="path4688" /></g><path
         style="fill:#000000;fill-opacity:1;fill-rule:nonzero;stroke:#000000;stroke-width:0.0399993px;stroke-linecap:butt;stroke-linejoin:round;stroke-miterlimit:4;stroke-dasharray:none;stroke-opacity:1"
         d="M 59.918981,77.998673 H 300.51489 v 1.319978 H 59.918981 Z m 1.359977,3.319944 -13.359773,-2.679954 13.359773,-2.639955 z m 237.875952,-5.319909 13.35978,2.639955 -13.35978,2.679954 z"
         id="path4559" /><path
         style="fill:none;stroke:#000000;stroke-width:1.27998px;stroke-linecap:butt;stroke-linejoin:miter;stroke-miterlimit:8;stroke-dasharray:none;stroke-opacity:1"
         d="M 312.39469,60.718967 V 83.398582"
         id="path4561" /><g
         aria-label="l"
         transform="translate(179.5878,104.34647)"
         id="text4567"
         style="font-size:21.25px;line-height:125%;font-family:Arial;letter-spacing:0px;word-spacing:0px"><path
           d="M 1.3592529,0 V -15.211182 H 3.2269287 V 0 Z"
           id="path4700" /></g><path
         style="fill:#70ad47;fill-opacity:1;fill-rule:nonzero;stroke:#70ad47;stroke-width:0.0399993px;stroke-linecap:butt;stroke-linejoin:round;stroke-miterlimit:4;stroke-dasharray:none;stroke-opacity:1"
         clip-path="url(#clipEmfPath1)"
         d="M 47.999184,60.718967 H 350.27404 v 2.079965 H 47.999184 Z m 290.555056,-3.279944 15.59974,4.319927 -15.59974,4.359926 c -0.55999,0.159997 -1.11998,-0.159998 -1.27998,-0.719988 -0.15999,-0.559991 0.16,-1.119981 0.71999,-1.279978 l 11.9998,-3.359943 v 2.039965 l -11.9998,-3.359943 c -0.55999,-0.159997 -0.87998,-0.719988 -0.71999,-1.279978 0.16,-0.559991 0.71999,-0.879985 1.27998,-0.719988 z"
         id="path4569" /><g
         aria-label="x"
         transform="translate(348.65321,54.5954)"
         id="text4575"
         style="font-size:21.25px;line-height:125%;font-family:Arial;letter-spacing:0px;word-spacing:0px"><path
           d="M 0.15563965,0 4.1815186,-5.7275391 0.45654297,-11.019287 H 2.7911377 l 1.6912842,2.5836181 q 0.4772949,0.7366943 0.7678222,1.2347412 0.456543,-0.6848145 0.8404541,-1.2139893 l 1.8572998,-2.60437 h 2.230835 L 6.3708496,-5.8312988 10.46936,0 H 8.1762695 L 5.9143066,-3.4240723 5.3125,-4.3475342 2.4176025,0 Z"
           style="fill:#70ad47"
           id="path4691" /></g><path
         style="fill:#70ad47;fill-opacity:1;fill-rule:nonzero;stroke:#70ad47;stroke-width:0.0199997px;stroke-linecap:butt;stroke-linejoin:round;stroke-miterlimit:4;stroke-dasharray:none;stroke-opacity:1"
         clip-path="url(#clipEmfPath1)"
         d="M 49.039166,61.598952 V 125.75786 H 46.959201 V 61.598952 Z m 3.299944,52.439108 -4.339926,15.59974 -4.319927,-15.59974 c -0.159997,-0.55999 0.159997,-1.11998 0.719988,-1.27998 0.55999,-0.15999 1.119981,0.16 1.279978,0.71999 l 3.339943,11.9998 h -2.019965 l 3.339943,-11.9998 c 0.159997,-0.55999 0.719988,-0.87998 1.279978,-0.71999 0.559991,0.16 0.879985,0.71999 0.719988,1.27998 z"
         id="path4577" /><g
         aria-label="y"
         transform="translate(16.023438,59.89945)"
         id="text4583"
         style="font-size:21.25px;line-height:125%;font-family:Arial;letter-spacing:0px;word-spacing:0px"><path
           d="M 1.317749,4.2437744 1.1102295,2.4902344 Q 1.7224121,2.65625 2.1789551,2.65625 q 0.6225586,0 0.9960937,-0.2075195 Q 3.548584,2.2412109 3.7872314,1.8676758 3.963623,1.5875244 4.3579102,0.47729492 4.40979,0.32165527 4.5239258,0.02075195 L 0.34240723,-11.019287 H 2.3553467 l 2.2930908,6.3812255 q 0.446167,1.2139892 0.7989502,2.5524902 Q 5.769043,-3.3721924 6.21521,-4.5965576 L 8.5705566,-11.019287 H 10.438232 L 6.2463379,0.18676758 Q 5.5718994,2.0025635 5.1983643,2.6873779 4.7003174,3.6108398 4.0570068,4.0362549 q -0.6433105,0.435791 -1.5356445,0.435791 -0.5395508,0 -1.2036133,-0.2282715 z"
           style="fill:#70ad47"
           id="path4694" /></g><path
         style="fill:#ffffff;fill-opacity:1;fill-rule:evenodd;stroke:none"
         d="m 44.159249,61.678951 c 0,-2.059965 1.699971,-3.759936 3.759936,-3.759936 2.079965,0 3.759936,1.699971 3.759936,3.759936 0,2.079965 -1.679971,3.759936 -3.759936,3.759936 -2.059965,0 -3.759936,-1.679971 -3.759936,-3.759936 z"
         id="path4585" /><path
         style="fill:none;stroke:#70ad47;stroke-width:2.07996px;stroke-linecap:butt;stroke-linejoin:miter;stroke-miterlimit:8;stroke-dasharray:none;stroke-opacity:1"
         d="m 44.159249,61.678951 c 0,-2.059965 1.699971,-3.759936 3.759936,-3.759936 2.079965,0 3.759936,1.699971 3.759936,3.759936 0,2.079965 -1.679971,3.759936 -3.759936,3.759936 -2.059965,0 -3.759936,-1.679971 -3.759936,-3.759936"
         id="path4587" /><g
         aria-label="z"
         transform="translate(61.382042,126.41316)"
         id="text4593"
         style="font-size:21.25px;line-height:125%;font-family:Arial;letter-spacing:0px;word-spacing:0px"><path
           d="M 0.41503906,0 V -1.5148926 L 7.4291992,-9.5666504 q -1.1932373,0.062256 -2.1063232,0.062256 H 0.83007813 V -11.019287 H 9.8364258 v 1.2347411 l -5.9661865,6.9934082 -1.1517334,1.2762451 q 1.2554931,-0.093384 2.3553466,-0.093384 H 10.168457 V 0 Z"
           style="fill:#70ad47"
           id="path4697" /></g><path
         style="fill:#000000;fill-opacity:1;fill-rule:nonzero;stroke:#000000;stroke-width:0.0399993px;stroke-linecap:butt;stroke-linejoin:round;stroke-miterlimit:4;stroke-dasharray:none;stroke-opacity:1"
         d="M 59.918981,33.51943 H 202.23656 v 1.319977 H 59.918981 Z m 1.359977,3.319943 -13.359773,-2.679954 13.359773,-2.639955 z m 139.637622,-5.319909 13.31978,2.639955 -13.31978,2.679954 z"
         id="path4595" /><path
         style="fill:none;stroke:#000000;stroke-width:1.27998px;stroke-linecap:butt;stroke-linejoin:miter;stroke-miterlimit:8;stroke-dasharray:none;stroke-opacity:1"
         d="M 47.919185,22.95961 V 53.199095"
         id="path4597" /><g
         aria-label="a"
         transform="translate(126.92026,24.356324)"
         id="text4603"
         style="font-size:21.25px;line-height:125%;font-family:Arial;letter-spacing:0px;word-spacing:0px"><path
           d="m 8.5913086,-1.3592529 q -1.0375977,0.88195798 -2.0025635,1.24511716 -0.9545898,0.36315918 -2.0544433,0.36315918 -1.8157959,0 -2.7911377,-0.88195801 -0.97534183,-0.89233403 -0.97534183,-2.27233883 0,-0.8093262 0.36315913,-1.4733887 0.3735352,-0.6744385 0.9649659,-1.0791016 0.6018066,-0.4046631 1.3488769,-0.6121826 0.5499268,-0.1452637 1.6601563,-0.2801514 2.2619629,-0.2697753 3.3306884,-0.6433105 0.010376,-0.3839111 0.010376,-0.4876709 0,-1.1413574 -0.5291748,-1.6082764 Q 7.2009277,-9.72229 5.7897949,-9.72229 q -1.317749,0 -1.9506836,0.4669189 -0.6225586,0.456543 -0.9234619,1.6290283 L 1.0894775,-7.8753662 Q 1.338501,-9.0478516 1.9091797,-9.7637939 2.4798584,-10.490112 3.55896,-10.874023 q 1.0791015,-0.394288 2.5006103,-0.394288 1.4111328,0 2.2930908,0.332032 0.881958,0.332031 1.2969971,0.840454 0.4150388,0.4980467 0.5810548,1.2658689 0.09338,0.477295 0.09338,1.7224122 v 2.4902343 q 0,2.6043701 0.114135,3.2995606 Q 10.562744,-0.63293457 10.915527,0 H 8.9648438 Q 8.6743164,-0.58105469 8.5913086,-1.3592529 Z M 8.4356689,-5.5303955 q -1.0168457,0.4150391 -3.0505371,0.7055664 -1.1517334,0.1660156 -1.6290283,0.3735352 -0.4772949,0.2075195 -0.7366943,0.6121826 -0.2593994,0.3942871 -0.2593994,0.881958 0,0.7470703 0.5603027,1.2451172 0.5706787,0.4980468 1.6601562,0.4980468 1.0791016,0 1.9195557,-0.4669189 0.8404541,-0.4772949 1.2347412,-1.2969971 0.3009033,-0.6329345 0.3009033,-1.8676758 z"
           id="path4682" /></g><path
         style="fill:#4472c4;fill-opacity:1;fill-rule:nonzero;stroke:#4472c4;stroke-width:0.0399993px;stroke-linecap:butt;stroke-linejoin:round;stroke-miterlimit:4;stroke-dasharray:none;stroke-opacity:1"
         d="M 220.07626,9.9198313 V 49.279162 h -3.99993 V 9.9198313 Z m 1.99996,37.3593647 -3.99993,7.999864 -3.99993,-7.999864 z"
         id="path4605" /><g
         aria-label="F"
         transform="translate(227.61566,25.880497)"
         id="text4611"
         style="font-size:21.25px;line-height:125%;font-family:Arial;letter-spacing:0px;word-spacing:0px"><path
           d="M 1.7431641,0 V -15.211182 H 12.005005 v 1.795044 H 3.7561035 v 4.7106937 h 7.1386715 v 1.7950439 H 3.7561035 V 0 Z"
           style="fill:#4472c4"
           id="path4685" /></g><path
         style="fill:none;stroke:#bfbfbf;stroke-width:0.639989px;stroke-linecap:butt;stroke-linejoin:miter;stroke-miterlimit:8;stroke-dasharray:none;stroke-opacity:1"
         clip-path="url(#clipEmfPath1)"
         d="M 2.4799578,3.9199333 H 365.35379 V 136.23768 H 2.4799578 Z"
         id="path4613" /></g></g><metadata
     id="metadata4703"><rdf:RDF><cc:License
         rdf:about="http://creativecommons.org/licenses/by-sa/4.0/"><cc:permits
           rdf:resource="http://creativecommons.org/ns#Reproduction" /><cc:permits
           rdf:resource="http://creativecommons.org/ns#Distribution" /><cc:requires
           rdf:resource="http://creativecommons.org/ns#Notice" /><cc:requires
           rdf:resource="http://creativecommons.org/ns#Attribution" /><cc:permits
           rdf:resource="http://creativecommons.org/ns#DerivativeWorks" /><cc:requires
           rdf:resource="http://creativecommons.org/ns#ShareAlike" /></cc:License><cc:Work
         rdf:about=""><cc:license
           rdf:resource="http://creativecommons.org/licenses/by-sa/4.0/" /><dc:date>2023-03-17</dc:date><dc:creator><cc:Agent><dc:title>s-quirin</dc:title></cc:Agent></dc:creator></cc:Work></rdf:RDF></metadata></svg>
