<?xml version="1.0" encoding="UTF-8" standalone="no"?>
<!-- Created with Inkscape (http://www.inkscape.org/) -->

<svg
   width="92.541389mm"
   height="31.52986mm"
   viewBox="0 0 92.541389 31.52986"
   version="1.1"
   id="svg20534"
   xml:space="preserve"
   xmlns="http://www.w3.org/2000/svg"
   xmlns:svg="http://www.w3.org/2000/svg"
   xmlns:rdf="http://www.w3.org/1999/02/22-rdf-syntax-ns#"
   xmlns:cc="http://creativecommons.org/ns#"
   xmlns:dc="http://purl.org/dc/elements/1.1/"><defs
     id="defs20531"><clipPath
       clipPathUnits="userSpaceOnUse"
       id="clipEmfPath1"><path
         d="M -2.2399619,-9.1198449 H 369.27372 V 144.15755 H -2.2399619 Z"
         id="path21264" /></clipPath></defs><g
     id="layer1"
     transform="translate(51.717856,-80.468258)"><g
       id="g21466"
       transform="matrix(0.26458333,0,0,0.26458333,-53.262996,78.499792)"><path
         style="fill:#7f7f7f;fill-opacity:1;fill-rule:evenodd;stroke:none"
         d="M 44.399245,52.719103 V 64.07891 H 308.87475 V 52.719103 Z"
         id="path21270" /><path
         style="fill:#ffffff;fill-opacity:1;fill-rule:evenodd;stroke:none"
         d="M 29.279502,88.79849 44.399245,58.559004 59.518988,88.79849 Z"
         id="path21272" /><path
         style="fill:none;stroke:#404040;stroke-width:2.71995px;stroke-linecap:butt;stroke-linejoin:miter;stroke-miterlimit:8;stroke-dasharray:none;stroke-opacity:1"
         d="M 29.279502,88.79849 44.399245,58.559004 59.518988,88.79849 Z"
         id="path21274" /><path
         style="fill:#ffffff;fill-opacity:1;fill-rule:evenodd;stroke:none"
         d="m 37.759358,58.639003 c 0,-3.659938 2.979949,-6.639887 6.639887,-6.639887 3.679937,0 6.639887,2.979949 6.639887,6.639887 0,3.679937 -2.95995,6.639887 -6.639887,6.639887 -3.659938,0 -6.639887,-2.95995 -6.639887,-6.639887 z"
         id="path21276" /><path
         style="fill:none;stroke:#404040;stroke-width:2.71995px;stroke-linecap:butt;stroke-linejoin:miter;stroke-miterlimit:8;stroke-dasharray:none;stroke-opacity:1"
         d="m 37.759358,58.639003 c 0,-3.659938 2.979949,-6.639887 6.639887,-6.639887 3.679937,0 6.639887,2.979949 6.639887,6.639887 0,3.679937 -2.95995,6.639887 -6.639887,6.639887 -3.659938,0 -6.639887,-2.95995 -6.639887,-6.639887"
         id="path21278" /><path
         style="fill:none;stroke:#404040;stroke-width:2.71995px;stroke-linecap:butt;stroke-linejoin:miter;stroke-miterlimit:8;stroke-dasharray:none;stroke-opacity:1"
         d="M 21.75963,88.958487 H 67.118859"
         id="path21280" /><path
         style="fill:none;stroke:#404040;stroke-width:1.27998px;stroke-linecap:butt;stroke-linejoin:miter;stroke-miterlimit:8;stroke-dasharray:none;stroke-opacity:1"
         d="M 33.019438,88.878488 21.679631,100.2183"
         id="path21282" /><path
         style="fill:none;stroke:#404040;stroke-width:1.27998px;stroke-linecap:butt;stroke-linejoin:miter;stroke-miterlimit:8;stroke-dasharray:none;stroke-opacity:1"
         d="M 44.379245,88.878488 33.039438,100.2183"
         id="path21284" /><path
         style="fill:none;stroke:#404040;stroke-width:1.27998px;stroke-linecap:butt;stroke-linejoin:miter;stroke-miterlimit:8;stroke-dasharray:none;stroke-opacity:1"
         d="M 55.739052,88.878488 44.399245,100.2183"
         id="path21286" /><path
         style="fill:none;stroke:#404040;stroke-width:1.27998px;stroke-linecap:butt;stroke-linejoin:miter;stroke-miterlimit:8;stroke-dasharray:none;stroke-opacity:1"
         d="M 66.618867,88.878488 55.27906,100.2183"
         id="path21288" /><path
         style="fill:none;stroke:#000000;stroke-width:1.27998px;stroke-linecap:butt;stroke-linejoin:miter;stroke-miterlimit:8;stroke-dasharray:none;stroke-opacity:1"
         d="m 6.4798898,17.519702 c 0,-5.199912 4.2399282,-9.4398394 9.4398392,-9.4398394 5.219911,0 9.43984,4.2399274 9.43984,9.4398394 0,5.219911 -4.219929,9.43984 -9.43984,9.43984 -5.199911,0 -9.4398392,-4.219929 -9.4398392,-9.43984"
         id="path21290" /><g
         aria-label="A"
         transform="translate(9.803154,24.452611)"
         id="text21296"
         style="font-size:18.75px;line-height:125%;font-family:Arial;letter-spacing:0px;word-spacing:0px"><path
           d="M -0.02746582,0 5.1269531,-13.421631 H 7.0404053 L 12.533569,0 H 10.510254 L 8.9447021,-4.0649414 H 3.3325195 L 1.8585205,0 Z M 3.8452148,-5.5114746 H 8.3953857 L 6.9946289,-9.2285156 Q 6.3537598,-10.922241 6.0424805,-12.011719 5.7861328,-10.720825 5.3192139,-9.4482422 Z"
           id="path22557" /></g><path
         style="fill:#ffffff;fill-opacity:1;fill-rule:evenodd;stroke:none"
         d="m 293.915,87.998503 15.11974,-30.239485 15.11975,30.239485 z"
         id="path21298" /><path
         style="fill:none;stroke:#404040;stroke-width:2.71995px;stroke-linecap:butt;stroke-linejoin:miter;stroke-miterlimit:8;stroke-dasharray:none;stroke-opacity:1"
         d="m 293.915,87.998503 15.11974,-30.239485 15.11975,30.239485 z"
         id="path21300" /><path
         style="fill:#ffffff;fill-opacity:1;fill-rule:evenodd;stroke:none"
         d="m 302.55485,58.639003 c 0,-3.639938 2.95995,-6.639887 6.55989,-6.639887 3.63994,0 6.55989,2.999949 6.55989,6.639887 0,3.679937 -2.91995,6.639887 -6.55989,6.639887 -3.59994,0 -6.55989,-2.95995 -6.55989,-6.639887 z"
         id="path21302" /><path
         style="fill:none;stroke:#404040;stroke-width:2.71995px;stroke-linecap:butt;stroke-linejoin:miter;stroke-miterlimit:8;stroke-dasharray:none;stroke-opacity:1"
         d="m 302.55485,58.639003 c 0,-3.639938 2.95995,-6.639887 6.55989,-6.639887 3.63994,0 6.55989,2.999949 6.55989,6.639887 0,3.679937 -2.91995,6.639887 -6.55989,6.639887 -3.59994,0 -6.55989,-2.95995 -6.55989,-6.639887"
         id="path21304" /><path
         style="fill:none;stroke:#404040;stroke-width:2.71995px;stroke-linecap:butt;stroke-linejoin:miter;stroke-miterlimit:8;stroke-dasharray:none;stroke-opacity:1"
         d="m 286.39513,95.518376 h 45.35923"
         id="path21306" /><path
         style="fill:none;stroke:#404040;stroke-width:1.27998px;stroke-linecap:butt;stroke-linejoin:miter;stroke-miterlimit:8;stroke-dasharray:none;stroke-opacity:1"
         d="M 297.67494,95.438377 286.31513,106.79818"
         id="path21308" /><path
         style="fill:none;stroke:#404040;stroke-width:1.27998px;stroke-linecap:butt;stroke-linejoin:miter;stroke-miterlimit:8;stroke-dasharray:none;stroke-opacity:1"
         d="M 308.87475,95.438377 297.51494,106.79818"
         id="path21310" /><path
         style="fill:none;stroke:#404040;stroke-width:1.27998px;stroke-linecap:butt;stroke-linejoin:miter;stroke-miterlimit:8;stroke-dasharray:none;stroke-opacity:1"
         d="m 320.23455,95.438377 -11.3598,11.359803"
         id="path21312" /><path
         style="fill:none;stroke:#404040;stroke-width:1.27998px;stroke-linecap:butt;stroke-linejoin:miter;stroke-miterlimit:8;stroke-dasharray:none;stroke-opacity:1"
         d="M 331.11437,95.438377 319.75456,106.79818"
         id="path21314" /><path
         style="fill:none;stroke:#000000;stroke-width:1.27998px;stroke-linecap:butt;stroke-linejoin:miter;stroke-miterlimit:8;stroke-dasharray:none;stroke-opacity:1"
         d="m 331.59436,17.999694 c 0,-5.199912 4.23993,-9.4398396 9.43984,-9.4398396 5.23991,0 9.43984,4.2399276 9.43984,9.4398396 0,5.239911 -4.19993,9.439839 -9.43984,9.439839 -5.19991,0 -9.43984,-4.199928 -9.43984,-9.439839"
         id="path21316" /><g
         aria-label="B"
         transform="translate(334.87313,24.911276)"
         id="text21322"
         style="font-size:18.75px;line-height:125%;font-family:Arial;letter-spacing:0px;word-spacing:0px"><path
           d="m 1.373291,0 v -13.421631 h 5.0354004 q 1.5380859,0 2.4627686,0.411987 0.9338379,0.402832 1.455688,1.254273 0.531006,0.842285 0.531006,1.7669677 0,0.8605957 -0.466919,1.6204834 -0.4669186,0.7598877 -1.4099118,1.2268066 1.2176518,0.3570557 1.8676758,1.2176514 0.65918,0.8605957 0.65918,2.0324707 0,0.9429932 -0.402832,1.7578125 -0.393677,0.8056641 -0.979615,1.24511718 Q 9.5397949,-0.4486084 8.6517334,-0.21972656 7.7728271,0 6.4910889,0 Z m 1.7761231,-7.7819824 h 2.9022216 q 1.1810303,0 1.6937256,-0.1556397 0.6774903,-0.201416 1.0162354,-0.6683349 0.3479004,-0.466919 0.3479004,-1.171875 0,-0.668335 -0.3204346,-1.171875 -0.3204346,-0.512695 -0.9155273,-0.695801 -0.5950928,-0.192261 -2.041626,-0.192261 H 3.1494141 Z m 0,6.1981201 h 3.3416748 q 0.8605957,0 1.2084961,-0.064087 0.6134033,-0.1098633 1.0253906,-0.366211 0.4119873,-0.2563476 0.6774902,-0.7415771 0.265503,-0.4943848 0.265503,-1.1352539 0,-0.7507324 -0.3845215,-1.3000488 Q 8.8989258,-5.7495117 8.2122803,-5.9692383 7.53479,-6.1981201 6.2530518,-6.1981201 H 3.1494141 Z"
           id="path22560" /></g><path
         style="fill:#000000;fill-opacity:1;fill-rule:nonzero;stroke:#000000;stroke-width:0.0399993px;stroke-linecap:butt;stroke-linejoin:round;stroke-miterlimit:4;stroke-dasharray:none;stroke-opacity:1"
         d="M 56.399041,74.958725 H 296.99495 v 1.319978 H 56.399041 Z m 1.359977,3.319944 -13.359773,-2.679955 13.359773,-2.639955 z m 237.875952,-5.31991 13.35977,2.639955 -13.35977,2.679955 z"
         id="path21324" /><path
         style="fill:none;stroke:#000000;stroke-width:1.27998px;stroke-linecap:butt;stroke-linejoin:miter;stroke-miterlimit:8;stroke-dasharray:none;stroke-opacity:1"
         d="M 308.87475,57.679019 V 80.358633"
         id="path21326" /><g
         aria-label="l"
         transform="translate(176.06786,101.30652)"
         id="text21332"
         style="font-size:21.25px;line-height:125%;font-family:Arial;letter-spacing:0px;word-spacing:0px"><path
           d="M 1.3592529,0 V -15.211182 H 3.2269287 V 0 Z"
           id="path22575" /></g><path
         style="fill:#70ad47;fill-opacity:1;fill-rule:nonzero;stroke:#70ad47;stroke-width:0.0399993px;stroke-linecap:butt;stroke-linejoin:round;stroke-miterlimit:4;stroke-dasharray:none;stroke-opacity:1"
         clip-path="url(#clipEmfPath1)"
         d="M 44.479244,57.679019 H 346.7541 v 2.079965 H 44.479244 Z m 290.555056,-3.279944 15.59974,4.319926 -15.59974,4.359926 c -0.55999,0.159998 -1.11998,-0.159997 -1.27998,-0.719988 -0.15999,-0.55999 0.16,-1.11998 0.71999,-1.279978 l 11.9998,-3.359943 v 2.039966 l -11.9998,-3.359943 c -0.55999,-0.159997 -0.87998,-0.719988 -0.71999,-1.279978 0.16,-0.559991 0.71999,-0.879985 1.27998,-0.719988 z"
         id="path21334" /><g
         aria-label="x"
         transform="translate(345.13327,51.555451)"
         id="text21340"
         style="font-size:21.25px;line-height:125%;font-family:Arial;letter-spacing:0px;word-spacing:0px"><path
           d="M 0.15563965,0 4.1815186,-5.7275391 0.45654297,-11.019287 H 2.7911377 l 1.6912842,2.5836181 q 0.4772949,0.7366943 0.7678222,1.2347412 0.456543,-0.6848145 0.8404541,-1.2139893 l 1.8572998,-2.60437 h 2.230835 L 6.3708496,-5.8312988 10.46936,0 H 8.1762695 L 5.9143066,-3.4240723 5.3125,-4.3475342 2.4176025,0 Z"
           style="fill:#70ad47"
           id="path22566" /></g><path
         style="fill:#70ad47;fill-opacity:1;fill-rule:nonzero;stroke:#70ad47;stroke-width:0.0199997px;stroke-linecap:butt;stroke-linejoin:round;stroke-miterlimit:4;stroke-dasharray:none;stroke-opacity:1"
         clip-path="url(#clipEmfPath1)"
         d="M 45.519226,58.559004 V 122.71791 H 43.439261 V 58.559004 Z m 3.299944,52.439106 -4.339926,15.59974 -4.319927,-15.59974 c -0.159997,-0.55999 0.159997,-1.11998 0.719988,-1.27998 0.55999,-0.15999 1.119981,0.16 1.279978,0.71999 l 3.339943,11.9998 h -2.019965 l 3.339943,-11.9998 c 0.159997,-0.55999 0.719988,-0.87998 1.279978,-0.71999 0.55999,0.16 0.879985,0.71999 0.719988,1.27998 z"
         id="path21342" /><g
         aria-label="y"
         transform="translate(12.503498,56.859502)"
         id="text21348"
         style="font-size:21.25px;line-height:125%;font-family:Arial;letter-spacing:0px;word-spacing:0px"><path
           d="M 1.317749,4.2437744 1.1102295,2.4902344 Q 1.7224121,2.65625 2.1789551,2.65625 q 0.6225586,0 0.9960937,-0.2075195 Q 3.548584,2.2412109 3.7872314,1.8676758 3.963623,1.5875244 4.3579102,0.47729492 4.40979,0.32165527 4.5239258,0.02075195 L 0.34240723,-11.019287 H 2.3553467 l 2.2930908,6.3812255 q 0.446167,1.2139892 0.7989502,2.5524902 Q 5.769043,-3.3721924 6.21521,-4.5965576 L 8.5705566,-11.019287 H 10.438232 L 6.2463379,0.18676758 Q 5.5718994,2.0025635 5.1983643,2.6873779 4.7003174,3.6108398 4.0570068,4.0362549 q -0.6433105,0.435791 -1.5356445,0.435791 -0.5395508,0 -1.2036133,-0.2282715 z"
           style="fill:#70ad47"
           id="path22569" /></g><path
         style="fill:#ffffff;fill-opacity:1;fill-rule:evenodd;stroke:none"
         d="m 40.639309,58.639003 c 0,-2.059965 1.699971,-3.759936 3.759936,-3.759936 2.079965,0 3.759936,1.699971 3.759936,3.759936 0,2.079964 -1.679971,3.759936 -3.759936,3.759936 -2.059965,0 -3.759936,-1.679972 -3.759936,-3.759936 z"
         id="path21350" /><path
         style="fill:none;stroke:#70ad47;stroke-width:2.07996px;stroke-linecap:butt;stroke-linejoin:miter;stroke-miterlimit:8;stroke-dasharray:none;stroke-opacity:1"
         d="m 40.639309,58.639003 c 0,-2.059965 1.699971,-3.759936 3.759936,-3.759936 2.079965,0 3.759936,1.699971 3.759936,3.759936 0,2.079964 -1.679971,3.759936 -3.759936,3.759936 -2.059965,0 -3.759936,-1.679972 -3.759936,-3.759936"
         id="path21352" /><g
         aria-label="z"
         transform="translate(57.862102,123.37321)"
         id="text21358"
         style="font-size:21.25px;line-height:125%;font-family:Arial;letter-spacing:0px;word-spacing:0px"><path
           d="M 0.41503906,0 V -1.5148926 L 7.4291992,-9.5666504 q -1.1932373,0.062256 -2.1063232,0.062256 H 0.83007813 V -11.019287 H 9.8364258 v 1.2347411 l -5.9661865,6.9934082 -1.1517334,1.2762451 q 1.2554931,-0.093384 2.3553466,-0.093384 H 10.168457 V 0 Z"
           style="fill:#70ad47"
           id="path22572" /></g><path
         style="fill:#4472c4;fill-opacity:1;fill-rule:nonzero;stroke:#4472c4;stroke-width:0.0199997px;stroke-linecap:butt;stroke-linejoin:round;stroke-miterlimit:4;stroke-dasharray:none;stroke-opacity:1"
         d="M 64.398905,29.599497 V 48.279179 H 62.31894 V 29.599497 Z m 1.639972,17.359704 -2.679955,5.31991 -2.659954,-5.31991 z"
         id="path21360" /><path
         style="fill:#4472c4;fill-opacity:1;fill-rule:nonzero;stroke:#4472c4;stroke-width:0.0199997px;stroke-linecap:butt;stroke-linejoin:round;stroke-miterlimit:4;stroke-dasharray:none;stroke-opacity:1"
         d="M 83.278584,29.599497 V 48.279179 H 81.198619 V 29.599497 Z m 1.639972,17.359704 -2.679955,5.31991 -2.659954,-5.31991 z"
         id="path21362" /><path
         style="fill:#4472c4;fill-opacity:1;fill-rule:nonzero;stroke:#4472c4;stroke-width:0.0199997px;stroke-linecap:butt;stroke-linejoin:round;stroke-miterlimit:4;stroke-dasharray:none;stroke-opacity:1"
         d="M 102.15826,29.599497 V 48.279179 H 100.0783 V 29.599497 Z m 1.63997,17.359704 -2.67995,5.31991 -2.659954,-5.31991 z"
         id="path21364" /><path
         style="fill:#4472c4;fill-opacity:1;fill-rule:nonzero;stroke:#4472c4;stroke-width:0.0199997px;stroke-linecap:butt;stroke-linejoin:round;stroke-miterlimit:4;stroke-dasharray:none;stroke-opacity:1"
         d="m 121.03794,29.599497 v 18.679682 h -2.07996 V 29.599497 Z m 1.63997,17.359704 -2.67995,5.31991 -2.65996,-5.31991 z"
         id="path21366" /><path
         style="fill:#4472c4;fill-opacity:1;fill-rule:nonzero;stroke:#4472c4;stroke-width:0.0199997px;stroke-linecap:butt;stroke-linejoin:round;stroke-miterlimit:4;stroke-dasharray:none;stroke-opacity:1"
         d="m 139.91762,29.599497 v 18.679682 h -2.07996 V 29.599497 Z m 1.63997,17.359704 -2.67995,5.31991 -2.65996,-5.31991 z"
         id="path21368" /><path
         style="fill:#4472c4;fill-opacity:1;fill-rule:nonzero;stroke:#4472c4;stroke-width:0.0199997px;stroke-linecap:butt;stroke-linejoin:round;stroke-miterlimit:4;stroke-dasharray:none;stroke-opacity:1"
         d="m 158.7973,29.599497 v 18.679682 h -2.07997 V 29.599497 Z m 1.63997,17.359704 -2.67995,5.31991 -2.65996,-5.31991 z"
         id="path21370" /><path
         style="fill:#4472c4;fill-opacity:1;fill-rule:nonzero;stroke:#4472c4;stroke-width:0.0199997px;stroke-linecap:butt;stroke-linejoin:round;stroke-miterlimit:4;stroke-dasharray:none;stroke-opacity:1"
         d="m 177.67698,29.599497 v 18.679682 h -2.07997 V 29.599497 Z m 1.63997,17.359704 -2.67995,5.31991 -2.65996,-5.31991 z"
         id="path21372" /><path
         style="fill:#4472c4;fill-opacity:1;fill-rule:nonzero;stroke:#4472c4;stroke-width:0.0399993px;stroke-linecap:butt;stroke-linejoin:round;stroke-miterlimit:4;stroke-dasharray:none;stroke-opacity:1"
         d="m 215.59633,29.599497 v 18.679682 h -2.07996 V 29.599497 Z m 1.63998,17.359704 -2.67996,5.31991 -2.63995,-5.31991 z"
         id="path21374" /><path
         style="fill:#4472c4;fill-opacity:1;fill-rule:nonzero;stroke:#4472c4;stroke-width:0.0399993px;stroke-linecap:butt;stroke-linejoin:round;stroke-miterlimit:4;stroke-dasharray:none;stroke-opacity:1"
         d="m 196.55666,29.599497 v 18.679682 h -2.07997 V 29.599497 Z m 1.63997,17.359704 -2.67996,5.31991 -2.63995,-5.31991 z"
         id="path21376" /><path
         style="fill:#4472c4;fill-opacity:1;fill-rule:nonzero;stroke:#4472c4;stroke-width:0.0399993px;stroke-linecap:butt;stroke-linejoin:round;stroke-miterlimit:4;stroke-dasharray:none;stroke-opacity:1"
         d="m 234.47601,29.599497 v 18.679682 h -2.07996 V 29.599497 Z m 1.63997,17.359704 -2.67995,5.31991 -2.63996,-5.31991 z"
         id="path21378" /><path
         style="fill:#4472c4;fill-opacity:1;fill-rule:nonzero;stroke:#4472c4;stroke-width:0.0399993px;stroke-linecap:butt;stroke-linejoin:round;stroke-miterlimit:4;stroke-dasharray:none;stroke-opacity:1"
         d="m 253.35569,29.599497 v 18.679682 h -2.07996 V 29.599497 Z m 1.63997,17.359704 -2.67995,5.31991 -2.63996,-5.31991 z"
         id="path21380" /><path
         style="fill:#4472c4;fill-opacity:1;fill-rule:nonzero;stroke:#4472c4;stroke-width:0.0399993px;stroke-linecap:butt;stroke-linejoin:round;stroke-miterlimit:4;stroke-dasharray:none;stroke-opacity:1"
         d="m 272.23537,29.599497 v 18.679682 h -2.07996 V 29.599497 Z m 1.63997,17.359704 -2.67995,5.31991 -2.63996,-5.31991 z"
         id="path21382" /><path
         style="fill:#4472c4;fill-opacity:1;fill-rule:nonzero;stroke:#4472c4;stroke-width:0.0399993px;stroke-linecap:butt;stroke-linejoin:round;stroke-miterlimit:4;stroke-dasharray:none;stroke-opacity:1"
         d="m 291.11505,29.599497 v 18.679682 h -2.07997 V 29.599497 Z m 1.63997,17.359704 -2.67995,5.31991 -2.63996,-5.31991 z"
         id="path21384" /><path
         style="fill:#4472c4;fill-opacity:1;fill-rule:nonzero;stroke:#4472c4;stroke-width:0.0199997px;stroke-linecap:butt;stroke-linejoin:round;stroke-miterlimit:4;stroke-dasharray:none;stroke-opacity:1"
         d="M 43.439261,48.319178 V 28.559514 H 176.637 v 2.079965 H 44.479244 l 1.039982,-1.039982 v 18.719681 z m 3.719937,-1.319977 -2.679954,5.319909 -2.659955,-5.319909 z"
         id="path21386" /><path
         style="fill:#4472c4;fill-opacity:1;fill-rule:nonzero;stroke:#4472c4;stroke-width:0.0399993px;stroke-linecap:butt;stroke-linejoin:round;stroke-miterlimit:4;stroke-dasharray:none;stroke-opacity:1"
         d="M 309.99473,48.319178 V 28.559514 H 176.637 v 2.079965 h 132.31775 l -1.03999,-1.039982 v 18.719681 z m -3.67994,-1.319977 2.63996,5.319909 2.67995,-5.319909 z"
         id="path21388" /><g
         aria-label="q"
         transform="translate(196.53963,19.060672)"
         id="text21394"
         style="font-size:21.25px;line-height:125%;font-family:Arial;letter-spacing:0px;word-spacing:0px"><path
           d="m 8.425293,4.2230225 v -5.3955079 q -0.435791,0.61218267 -1.2243653,1.01684575 -0.7781982,0.40466309 -1.6601562,0.40466309 -1.9610596,0 -3.3825684,-1.56677244 -1.41113279,-1.5667725 -1.41113279,-4.2956543 0,-1.6601563 0.57067869,-2.9779053 0.5810547,-1.317749 1.6705323,-1.9921874 1.0998535,-0.684815 2.4072265,-0.684815 2.0440674,0 3.2165527,1.7224126 V -11.019287 H 10.292969 V 4.2230225 Z m -5.758667,-9.763794 q 0,2.1270752 0.892334,3.1958008 0.8923339,1.0583496 2.1374511,1.0583496 1.1932373,0 2.0544434,-1.0064697 0.861206,-1.0168457 0.861206,-3.0816651 0,-2.199707 -0.9130859,-3.3099365 -0.90271,-1.1102295 -2.1270752,-1.1102295 -1.2139892,0 -2.0648193,1.0375977 -0.8404541,1.0272217 -0.8404541,3.2165527 z"
           style="fill:#4472c4"
           id="path22563" /></g></g></g><metadata
     id="metadata24456"><rdf:RDF><cc:Work
         rdf:about=""><cc:license
           rdf:resource="http://creativecommons.org/licenses/by-sa/4.0/" /><dc:creator><cc:Agent><dc:title>s-quirin</dc:title></cc:Agent></dc:creator><dc:date>2022-09-08</dc:date></cc:Work><cc:License
         rdf:about="http://creativecommons.org/licenses/by-sa/4.0/"><cc:permits
           rdf:resource="http://creativecommons.org/ns#Reproduction" /><cc:permits
           rdf:resource="http://creativecommons.org/ns#Distribution" /><cc:requires
           rdf:resource="http://creativecommons.org/ns#Notice" /><cc:requires
           rdf:resource="http://creativecommons.org/ns#Attribution" /><cc:permits
           rdf:resource="http://creativecommons.org/ns#DerivativeWorks" /><cc:requires
           rdf:resource="http://creativecommons.org/ns#ShareAlike" /></cc:License></rdf:RDF></metadata></svg>
